<mxfile host="65bd71144e">
    <diagram id="M9lTY5xdTG6lLnAIb_LF" name="Page-1">
        <mxGraphModel dx="1212" dy="2100" grid="1" gridSize="10" guides="1" tooltips="1" connect="1" arrows="1" fold="1" page="1" pageScale="1" pageWidth="850" pageHeight="1100" math="0" shadow="0">
            <root>
                <mxCell id="0"/>
                <mxCell id="1" parent="0"/>
                <mxCell id="9" style="edgeStyle=none;html=1;entryX=0;entryY=0.5;entryDx=0;entryDy=0;startArrow=classic;startFill=1;" edge="1" parent="1" source="3" target="7">
                    <mxGeometry relative="1" as="geometry"/>
                </mxCell>
                <mxCell id="3" value="Приложение" style="rounded=0;whiteSpace=wrap;" vertex="1" parent="1">
                    <mxGeometry x="200" y="-720" width="120" height="80" as="geometry"/>
                </mxCell>
                <mxCell id="6" style="edgeStyle=none;html=1;entryX=0;entryY=0.5;entryDx=0;entryDy=0;startArrow=classic;startFill=1;" edge="1" parent="1" source="7" target="8">
                    <mxGeometry relative="1" as="geometry"/>
                </mxCell>
                <mxCell id="7" value="Драйвер" style="rounded=0;whiteSpace=wrap;" vertex="1" parent="1">
                    <mxGeometry x="360" y="-720" width="120" height="80" as="geometry"/>
                </mxCell>
                <mxCell id="8" value="Графический ускоритель" style="rounded=0;whiteSpace=wrap;" vertex="1" parent="1">
                    <mxGeometry x="520" y="-720" width="120" height="80" as="geometry"/>
                </mxCell>
            </root>
        </mxGraphModel>
    </diagram>
</mxfile>